<svg  width="48"
      height="48"
      viewBox="-20 -10 180 20"
      xmlns="http://www.w3.org/2000/svg">
    <defs>
        <linearGradient id="conduitLogo_svg__a" y2="100%" gradientUnits="userSpaceOnUse" x2="0%">
            <stop stop-color="#3F2FA9" offset="0.24"></stop>
            <stop offset="0.9" stop-color="#07D9C4"></stop>
            <stop offset="1" stop-color="#38E0CF"></stop>
        </linearGradient>
    </defs>
    <path fill-rule="evenodd" clip-rule="evenodd" d="M 91.357 3.698 C 89.637 2.693 87.876 1.758 86.08 0.895 C 82.037 -1.046 79.638 4.415 82.948 7.442 C 100.452 23.445 107.776 43.109 109.306 52.868 C 110.242 56.435 115.925 56.92 121.33 57.381 C 126.893 57.855 132.161 58.304 131.646 62.066 C 129.597 77.043 121.681 90.591 109.641 99.731 C 100.554 106.63 89.606 110.643 78.213 111.25 C 77.892 111.2 77.567 111.186 77.243 111.208 C 76.275 111.272 75.306 111.311 74.336 111.325 C 73.366 111.311 72.396 111.272 71.426 111.208 C 71.102 111.186 70.777 111.2 70.456 111.25 C 43.155 109.791 20.734 89.153 17.023 62.066 C 16.509 58.304 21.776 57.856 27.34 57.381 C 32.744 56.92 38.428 56.435 39.364 52.868 C 40.894 43.108 48.218 23.445 65.722 7.442 C 69.032 4.416 66.632 -1.046 62.59 0.895 C 43.094 10.256 28.693 27.708 23.203 48.627 C 22.017 53.147 16.373 54.727 10.998 56.233 C 5.239 57.846 -0.21 59.373 0.47 64.333 C 5.511 101.153 37.176 128.46 74.337 128.034 C 90.718 128.222 106.695 122.946 119.743 113.039 C 135.312 101.22 145.549 83.699 148.199 64.332 C 148.878 59.372 143.43 57.846 137.672 56.233 C 132.297 54.728 126.652 53.146 125.466 48.627 C 120.505 29.719 108.235 13.557 91.357 3.697 L 91.357 3.698 Z M 102.37 72.576 C 102.37 88.06 89.818 100.612 74.335 100.612 C 58.851 100.612 46.299 88.06 46.299 72.576 C 46.299 57.093 58.851 44.541 74.335 44.541 C 89.818 44.541 102.37 57.093 102.37 72.576 Z" fill="url(#conduitLogo_svg__a)" transform="matrix(1, 0, 0, 1, -4.295904, -66.029009)"></path>
</svg>