<svg width="377" height="144" viewBox="0 0 377 144" fill="none" xmlns="http://www.w3.org/2000/svg">
    <g clip-path="url(#clip0)">
        <path d="M0 0V103.229L54.882 139.261L58.426 138.492L61.082 137.914C68.018 136.408 74.767 135.014 81.382 133.707V143.691L90.182 142.141C122.081 136.592 154.397 133.789 186.775 133.763C219.795 133.83 252.75 136.679 285.291 142.281L294.091 143.826V133.707C300.704 135.013 307.452 136.407 314.391 137.914L317.047 138.492L320.592 139.261L376.851 103.229V0H0Z" fill="#011E41"/>
        <path d="M69.6137 50.059C69.6047 53.994 67.7607 57.47 64.0877 60.599C62.9637 61.5583 61.7387 62.5313 60.4127 63.518C53.8357 68.361 54.9917 67.334 48.4287 72.569C58.7177 71.517 59.3167 71.009 69.5537 70.129C69.5437 74.017 69.5397 79.499 69.5297 83.388C55.0957 84.91 28.1357 88.568 28.1357 88.568L28.1887 74.16L55.1317 53.217C55.5928 52.8577 55.9667 52.3987 56.2254 51.8746C56.4841 51.3504 56.621 50.7745 56.6257 50.19L56.6457 47.2C56.6537 45.919 56.3457 43.956 54.3207 44.009C49.1207 44.144 36.5647 44.619 29.8887 44.866C29.8887 40.618 29.8567 34.866 29.8567 30.617C36.2407 30.346 50.8977 30.424 60.5287 30.517C62.9544 30.5392 65.273 31.5195 66.9788 33.2442C68.6846 34.969 69.6393 37.2982 69.6347 39.724C69.6297 43.113 69.6237 46.629 69.6177 48.673C69.6157 49.225 69.6157 49.5 69.6137 50.059Z" fill="#F32735"/>
        <path d="M74.874 82.837C74.889 77.587 74.896 74.962 74.91 69.713C85.333 68.928 90.548 68.579 100.981 67.973C102.514 67.885 103.281 67.188 103.281 65.88C103.281 64.572 103.287 63.917 103.29 62.609C103.293 61.301 102.533 60.68 101.002 60.752C94.82 61.042 91.73 61.199 85.552 61.539C78.44 61.932 74.885 59.134 74.876 53.083C74.8887 48.929 74.9 44.776 74.91 40.624C74.91 33.9533 78.3614 30.6177 85.264 30.617H115.245C115.23 35.531 115.223 37.988 115.208 42.902C105.292 43.064 100.336 43.159 90.424 43.376C88.8907 43.41 88.124 44.098 88.124 45.44C88.124 46.755 88.117 47.412 88.113 48.726C88.109 50.0667 88.8714 50.7107 90.4 50.658C96.765 50.44 99.947 50.339 106.312 50.158C109.068 50.078 112.227 50.423 114.312 52.429C116.66 54.689 116.412 57.885 116.412 60.877C116.412 63.177 116.403 65.485 116.399 67.788C116.496 69.4503 116.407 71.1183 116.135 72.761C115.871 73.983 115.344 75.1328 114.59 76.1302C113.836 77.1275 112.874 77.9485 111.77 78.536C109.753 79.5292 107.552 80.0908 105.306 80.185C93.123 81.082 87.034 81.613 74.874 82.837Z" fill="white"/>
        <path d="M122.838 79.027C122.892 59.663 122.919 49.98 122.976 30.617H154.488C161.81 30.617 165.29 33.817 164.929 40.217C164.929 43.899 164.929 47.58 164.929 51.26C165.094 56.888 161.59 59.737 154.429 59.874C147.105 60.014 143.445 60.101 136.129 60.314L136.084 78.333C130.786 78.578 128.136 78.718 122.838 79.027ZM151.784 44.311C151.784 43.0723 151.02 42.459 149.493 42.471C144.165 42.518 141.502 42.546 136.176 42.608C136.169 45.446 136.165 46.865 136.157 49.702C141.485 49.602 144.149 49.559 149.478 49.485C151.011 49.4637 151.778 48.8337 151.778 47.595C151.781 46.282 151.781 45.625 151.784 44.311Z" fill="white"/>
        <path d="M180.3 77.126C173.313 77.178 169.822 74.54 169.819 69.114C169.833 59.276 169.846 49.4393 169.858 39.604C169.676 33.618 173.164 30.6223 180.323 30.617H201.123C208.46 30.547 212.038 33.5437 211.857 39.607C211.871 49.459 211.885 59.3107 211.899 69.162C211.899 74.616 208.376 77.246 201.336 77.155C194.333 77.064 187.3 77.076 180.3 77.126ZM198.7 44.137C198.696 42.9083 197.921 42.2967 196.374 42.302C192.716 42.3153 189.062 42.3153 185.411 42.302C183.862 42.296 183.087 42.907 183.085 44.135C183.085 50.593 183.083 57.052 183.079 63.512C183.045 64.798 183.82 65.4343 185.405 65.421C189.065 65.393 192.723 65.397 196.377 65.433C197.959 65.449 198.736 64.8207 198.708 63.548C198.708 57.0773 198.705 50.607 198.7 44.137Z" fill="white"/>
        <path d="M278.089 80.548C278.042 65.596 278.019 58.119 277.974 43.166C272.648 43.066 269.986 43.013 264.66 42.924L264.624 30.617H304.4C304.415 35.875 304.422 38.503 304.437 43.762C299.114 43.626 296.453 43.562 291.131 43.443C291.178 58.726 291.201 66.368 291.246 81.652C285.983 81.181 283.353 80.96 278.089 80.548Z" fill="white"/>
        <path d="M307.97 83.364C307.957 78.064 307.95 75.411 307.936 70.108C318.355 70.929 323.563 71.383 333.966 72.383C335.493 72.5303 336.255 71.8663 336.253 70.391C336.253 68.916 336.253 68.177 336.247 66.702C336.279 66.3887 336.243 66.0722 336.141 65.7743C336.039 65.4763 335.873 65.2042 335.655 64.9766C335.438 64.749 335.173 64.5714 334.88 64.4562C334.587 64.3409 334.272 64.2907 333.958 64.309C327.79 63.832 324.704 63.609 318.534 63.178C311.418 62.685 307.845 59.405 307.817 53.278C307.806 49.1207 307.795 44.9643 307.785 40.809C307.726 34.0177 311.159 30.622 318.085 30.622H348.067V45.122C338.167 44.772 333.216 44.611 323.31 44.316C321.782 44.27 321.019 44.9603 321.021 46.387C321.021 47.787 321.021 48.487 321.028 49.887C321.028 51.313 321.793 52.062 323.323 52.134C329.681 52.434 332.858 52.59 339.213 52.923C343.093 53.123 346.886 54.641 348.461 58.438C349.189 60.538 349.482 62.7641 349.323 64.981C349.312 68.351 349.3 71.7213 349.287 75.092C349.274 78.745 349.54 83.021 346.306 85.539C344.075 87.276 341.006 87.339 338.326 86.983C326.2 85.364 320.127 84.643 307.97 83.364Z" fill="white"/>
        <path d="M250.448 78.7C256.397 79 259.37 79.168 265.315 79.54C261.862 74.09 257.45 65.281 254.415 59.326C254.515 59.514 256.415 58.826 256.626 58.736C257.617 58.3455 258.484 57.6943 259.135 56.8512C259.787 56.0082 260.198 55.0047 260.326 53.947C260.57 51.9452 260.64 49.9259 260.535 47.912C260.535 45.542 260.524 43.1717 260.504 40.801C260.485 38.883 260.578 36.789 259.765 35.001C258.465 32.147 255.594 30.837 252.621 30.451C251.775 30.345 250.924 30.2939 250.072 30.298H218.932C218.96 49.041 218.975 58.414 219.003 77.158C224.283 77.294 226.923 77.378 232.203 77.577C232.187 70.111 232.18 66.377 232.162 58.914C235.422 58.989 237.682 59.043 240.168 59.114C243.111 64.632 247.764 73.38 250.448 78.7ZM232.14 48.9C232.133 46.088 232.13 44.682 232.124 41.871C237.424 41.92 240.078 41.948 245.38 42.012C246.902 42.03 247.666 42.6703 247.67 43.933C247.67 45.271 247.675 45.94 247.679 47.278C247.683 48.54 246.922 49.1563 245.397 49.127C240.1 49.024 237.443 48.979 232.14 48.9Z" fill="white"/>
        <path d="M8.21387 8.21399V98.987L10.8079 100.829L54.4639 128.89L56.6809 130.464L59.3389 129.886C66.8829 128.247 74.2079 126.742 81.3799 125.337V119.056C73.6719 120.556 65.8885 122.16 58.0299 123.867L14.3739 95.805V14.351L187.73 14.374H362.47V95.805L317.436 123.867C309.569 122.158 301.786 120.554 294.087 119.056V125.337C301.259 126.742 308.587 128.247 316.128 129.886L318.786 130.464L321 128.89L366.033 100.829L368.627 98.987V8.21399H8.21387Z" fill="white"/>
        <path d="M186.774 92.144C153.96 92.1642 121.208 95.0053 88.8799 100.636V134.755C121.208 129.124 153.96 126.283 186.774 126.263C220.229 126.317 253.619 129.204 286.587 134.894V100.775C253.619 95.0849 220.229 92.1975 186.774 92.144Z" fill="white"/>
        <path d="M112.866 104.175L117.466 103.713L122.832 116.513L125.873 102.813L129.551 102.444L135.258 115.265L137.97 101.654L142.456 101.204L137.771 121.513L134.037 121.889L128.354 109.571L125.233 122.771L121.5 123.146L112.866 104.175Z" fill="#011E41"/>
        <path d="M162.736 120.154C161.309 120.23 159.881 120.02 158.536 119.536C157.292 119.086 156.145 118.402 155.157 117.522C154.193 116.653 153.414 115.599 152.866 114.422C152.295 113.198 151.976 111.872 151.929 110.522V110.466C151.862 109.117 152.071 107.768 152.544 106.502C153.004 105.265 153.703 104.13 154.602 103.163C155.5 102.197 156.581 101.417 157.781 100.868C159.086 100.271 160.496 99.9391 161.93 99.892C163.358 99.8152 164.786 100.026 166.13 100.511C167.375 100.96 168.522 101.644 169.509 102.524C170.474 103.393 171.253 104.447 171.8 105.624C172.372 106.848 172.69 108.174 172.737 109.524V109.581C172.805 110.93 172.596 112.279 172.122 113.544C171.663 114.782 170.964 115.916 170.066 116.883C169.167 117.849 168.086 118.629 166.885 119.177C165.581 119.775 164.171 120.108 162.736 120.154ZM162.621 116.179C163.439 116.153 164.242 115.957 164.979 115.602C165.671 115.269 166.284 114.794 166.779 114.208C167.273 113.616 167.652 112.938 167.898 112.208C168.159 111.442 168.272 110.634 168.23 109.826V109.77C168.201 108.957 168.019 108.157 167.694 107.411C167.388 106.695 166.941 106.048 166.382 105.506C165.822 104.965 165.161 104.54 164.435 104.257C163.672 103.958 162.854 103.826 162.035 103.87C161.213 103.894 160.405 104.091 159.663 104.448C158.976 104.782 158.367 105.257 157.874 105.842C157.38 106.433 157 107.112 156.754 107.842C156.494 108.608 156.382 109.416 156.422 110.224V110.28C156.452 111.093 156.634 111.893 156.958 112.639C157.266 113.355 157.713 114.002 158.272 114.544C158.829 115.082 159.485 115.506 160.204 115.793C160.973 116.095 161.797 116.227 162.621 116.179Z" fill="#011E41"/>
        <path d="M184.5 99.649L193.459 99.737C194.496 99.6777 195.535 99.8281 196.513 100.179C197.491 100.53 198.388 101.075 199.151 101.781C199.715 102.38 200.151 103.089 200.433 103.862C200.714 104.636 200.834 105.459 200.787 106.281V106.336C200.834 107.723 200.412 109.086 199.587 110.203C198.792 111.201 197.731 111.953 196.527 112.371L201.246 119.418L196.206 119.368L192.068 113.055H192.013L188.681 113.023L188.619 119.294L184.307 119.251L184.5 99.649ZM193.086 109.249C193.967 109.317 194.842 109.057 195.543 108.518C195.828 108.269 196.054 107.959 196.205 107.612C196.356 107.265 196.428 106.888 196.417 106.51V106.454C196.449 106.058 196.386 105.661 196.234 105.294C196.082 104.928 195.844 104.603 195.542 104.346C194.818 103.833 193.943 103.577 193.057 103.621L188.773 103.579L188.718 109.206L193.086 109.249Z" fill="#011E41"/>
        <path d="M215.244 100.37L219.549 100.622L218.626 116.303L228.381 116.877L228.152 120.762L214.093 119.936L215.244 100.37Z" fill="#011E41"/>
        <path d="M243.02 102.314L250.62 103.13C252.052 103.267 253.446 103.67 254.731 104.318C255.901 104.909 256.942 105.724 257.797 106.718C258.619 107.683 259.232 108.809 259.597 110.023C259.974 111.289 260.09 112.619 259.938 113.932L259.932 113.988C259.801 115.307 259.405 116.586 258.768 117.748C258.156 118.863 257.317 119.838 256.307 120.611C255.259 121.401 254.069 121.981 252.801 122.318C251.409 122.687 249.959 122.789 248.529 122.618L240.929 121.802L243.02 102.314ZM248.944 118.748C249.76 118.846 250.587 118.792 251.383 118.587C252.107 118.401 252.783 118.06 253.363 117.587C253.935 117.115 254.409 116.534 254.757 115.878C255.135 115.157 255.367 114.369 255.442 113.558L255.449 113.502C255.543 112.694 255.483 111.875 255.271 111.089C255.075 110.364 254.735 109.686 254.271 109.096C253.802 108.511 253.216 108.03 252.55 107.686C251.818 107.309 251.021 107.076 250.202 106.997L246.889 106.642L245.628 118.391L248.944 118.748Z" fill="#011E41"/>
    </g>
    <defs>
        <clipPath id="clip0">
            <rect width="376.844" height="143.826" fill="white"/>
        </clipPath>
    </defs>
</svg>
