<?xml version="1.0" standalone="no"?>
<!DOCTYPE svg PUBLIC "-//W3C//DTD SVG 20010904//EN"
 "http://www.w3.org/TR/2001/REC-SVG-20010904/DTD/svg10.dtd">
<svg version="1.0" xmlns="http://www.w3.org/2000/svg"
 width="512.000000pt" height="512.000000pt" viewBox="0 0 512.000000 512.000000"
 preserveAspectRatio="xMidYMid meet" color="white">

<g transform="translate(0.000000,512.000000) scale(0.100000,-0.100000)"
fill="white" stroke="none">
<path d="M0 2560 l0 -2560 2560 0 2560 0 0 2560 0 2560 -2560 0 -2560 0 0
-2560z m3351 1687 c40 -19 61 -37 78 -67 12 -22 27 -40 33 -40 6 0 50 23 99
51 95 55 151 69 199 49 88 -36 83 -140 -30 -630 -137 -596 -180 -874 -180
-1168 0 -311 61 -571 179 -767 69 -114 82 -120 256 -119 122 0 244 12 324 31
15 4 22 2 17 -5 -8 -14 -206 -97 -342 -143 -256 -87 -548 -75 -729 30 -165 95
-273 259 -396 604 -30 81 -57 146 -61 145 -4 -2 -112 -107 -240 -233 -232
-229 -333 -317 -479 -412 -146 -95 -323 -169 -464 -194 -100 -17 -266 -7 -340
21 -127 48 -243 146 -308 260 -104 183 -69 451 108 818 326 676 969 1363 1536
1640 305 149 596 200 740 129z m-1442 -3168 c23 -8 31 -17 31 -34 l0 -23 -50
19 c-98 37 -218 17 -247 -41 -20 -39 -16 -94 9 -125 37 -48 111 -66 197 -49
28 6 31 10 31 45 l0 39 -55 0 c-42 0 -55 3 -55 15 0 12 16 15 85 15 l85 0 0
-64 0 -64 -50 -11 c-171 -37 -305 15 -317 120 -10 86 42 148 139 169 50 10
152 5 197 -11z m679 -3 c54 -28 75 -62 79 -124 8 -112 -65 -168 -207 -160
-123 7 -176 60 -168 165 6 72 45 114 123 134 41 11 140 2 173 -15z m-1400
-131 c39 -80 72 -148 72 -151 0 -3 -12 -4 -27 -2 -20 2 -33 13 -48 40 l-20 38
-92 0 -91 0 -19 -37 c-13 -28 -25 -39 -45 -41 -33 -4 -37 -15 55 166 l67 132
38 0 37 0 73 -145z m2079 119 c50 -37 42 -87 -20 -124 l-28 -17 68 -58 c37
-32 70 -61 71 -66 2 -5 -9 -9 -25 -9 -20 0 -48 18 -100 63 -63 53 -78 62 -110
61 l-38 -1 -3 -62 c-3 -57 -4 -61 -27 -61 l-25 0 0 151 0 151 104 -4 c87 -2
109 -6 133 -24z m681 -118 c39 -79 72 -147 72 -150 0 -3 -11 -6 -25 -6 -19 0
-29 10 -45 40 l-20 40 -94 0 -93 0 -18 -40 c-14 -30 -24 -40 -42 -40 -12 0
-23 5 -23 10 0 6 32 73 70 150 l70 140 38 0 37 0 73 -144z"/>
<path  d="M3024 3816 c-117 -28 -281 -124 -428 -250 -290 -248 -630 -690 -801
-1041 -121 -248 -220 -609 -186 -673 10 -20 20 -22 85 -22 209 0 490 132 746
350 129 110 359 390 503 611 259 398 384 740 336 914 -14 50 -64 100 -114 114
-49 13 -75 13 -141 -3z"/>
<path  d="M2400 1043 c-41 -28 -49 -45 -50 -101 0 -46 4 -58 28 -82 52 -52 152
-52 204 0 48 49 37 149 -22 183 -38 23 -128 22 -160 0z"/>
<path d="M1041 991 c-17 -36 -31 -68 -31 -73 0 -4 29 -8 65 -8 36 0 65 3 65 8
-1 4 -16 36 -34 72 l-34 65 -31 -64z"/>
<path d="M3088 1054 c-5 -4 -8 -29 -8 -56 l0 -48 58 0 c36 0 66 6 80 16 25 17
29 56 7 74 -17 14 -127 26 -137 14z"/>
<path d="M3802 985 c-18 -36 -32 -68 -32 -70 0 -3 32 -5 70 -5 l70 0 -35 70
c-19 39 -36 70 -38 70 -1 0 -17 -29 -35 -65z"/>
</g>
</svg>
