<svg width="543" height="142" viewBox="0 0 543 142" fill="none" xmlns="http://www.w3.org/2000/svg">
<g clip-path="url(#clip0_102_36)">
<path d="M196.18 9.29998C199.624 9.21927 203.052 9.79626 206.28 11C208.909 11.9987 211.296 13.5464 213.28 15.54C215.092 17.4314 216.458 19.7033 217.28 22.19C218.143 24.7479 218.579 27.4305 218.57 30.13C218.561 32.7876 218.16 35.4295 217.38 37.97C216.603 40.5522 215.284 42.9387 213.51 44.97C211.564 47.1218 209.177 48.8274 206.51 49.97C203.241 51.3748 199.707 52.057 196.15 51.97H174.52C174.281 51.9363 174.038 51.9588 173.81 52.0355C173.582 52.1122 173.374 52.2411 173.204 52.4119C173.035 52.5827 172.907 52.7908 172.831 53.0196C172.756 53.2484 172.735 53.4916 172.77 53.73V78.91H160.6V51.37C160.6 47.4566 161.46 44.64 163.18 42.92C164.89 41.2 167.68 40.34 171.53 40.34H196.59C198.109 40.3825 199.619 40.0995 201.02 39.51C202.175 39.0341 203.202 38.2943 204.02 37.35C204.776 36.468 205.356 35.4497 205.73 34.35C206.104 33.2004 206.293 31.9988 206.29 30.79C206.345 28.3963 205.519 26.0657 203.97 24.24C202.43 22.42 199.97 21.51 196.7 21.51H160.5V9.29998H196.18Z" fill="#1F2A56"/>
<path d="M258.26 24.51C261.203 24.4433 264.135 24.8969 266.92 25.85C269.159 26.6326 271.188 27.919 272.85 29.61C274.402 31.2299 275.55 33.1931 276.2 35.34C276.893 37.6452 277.231 40.0429 277.2 42.45V68.03C277.227 69.7083 277.072 71.3847 276.74 73.03C276.493 74.2819 275.904 75.4411 275.04 76.38C274.08 77.3165 272.884 77.9764 271.58 78.29C269.742 78.7443 267.853 78.9528 265.96 78.91H240.52C234.06 78.91 229.393 77.4333 226.52 74.48C223.647 71.5267 222.22 67.47 222.24 62.31C222.206 60.0698 222.544 57.8396 223.24 55.71C223.856 53.8375 224.936 52.1516 226.38 50.81C228.019 49.3662 229.959 48.307 232.06 47.71C234.841 46.9308 237.722 46.5669 240.61 46.63H266.5V42.51C266.558 40.5441 265.876 38.628 264.59 37.14C263.323 35.7 261.177 34.98 258.15 34.98H225.57V24.51H258.26ZM263.52 68.34C265.52 68.34 266.52 67.41 266.52 65.55V55.29H240.82C237.933 55.29 235.907 55.8567 234.74 56.99C234.138 57.6093 233.671 58.3466 233.368 59.1556C233.065 59.9645 232.933 60.8275 232.98 61.69C232.94 62.5654 233.075 63.44 233.377 64.2626C233.679 65.0851 234.143 65.839 234.74 66.48C235.9 67.6867 237.857 68.29 240.61 68.29L263.52 68.34Z" fill="#1F2A56"/>
<path d="M327.15 24.51V35.03H307.97C303.303 35.03 300.97 37.3633 300.97 42.03V78.91H290.02V40.34C290.02 34.84 291.137 30.8167 293.37 28.27C295.603 25.7233 299.42 24.47 304.82 24.51H327.15Z" fill="#1F2A56"/>
<path d="M370.15 24.51C373.093 24.4433 376.025 24.8969 378.81 25.85C381.049 26.6326 383.078 27.919 384.74 29.61C386.291 31.232 387.442 33.1942 388.1 35.34C388.788 37.6464 389.125 40.0433 389.1 42.45V68.03C389.124 69.7087 388.966 71.3851 388.63 73.03C388.391 74.2848 387.802 75.4464 386.93 76.38C385.973 77.3162 384.781 77.9762 383.48 78.29C381.642 78.7437 379.753 78.9522 377.86 78.91H352.41C345.95 78.91 341.283 77.4333 338.41 74.48C335.537 71.5267 334.11 67.47 334.13 62.31C334.101 60.0702 334.439 57.8408 335.13 55.71C335.746 53.8351 336.83 52.1485 338.28 50.81C339.913 49.3641 341.851 48.3046 343.95 47.71C346.735 46.9303 349.619 46.5663 352.51 46.63H378.39V42.51C378.452 40.5434 377.77 38.626 376.48 37.14C375.213 35.7 373.067 34.98 370.04 34.98H337.46V24.51H370.15ZM375.41 68.34C377.41 68.34 378.41 67.41 378.41 65.55V55.29H352.72C349.84 55.29 347.813 55.8567 346.64 56.99C346.04 57.6101 345.574 58.3478 345.273 59.1567C344.972 59.9657 344.841 60.8282 344.89 61.69C344.848 62.5647 344.981 63.4391 345.281 64.2617C345.582 65.0843 346.044 65.8385 346.64 66.48C347.807 67.6867 349.767 68.29 352.52 68.29L375.41 68.34Z" fill="#1F2A56"/>
<path d="M412.95 0.839966V78.91H402.02V0.839966H412.95Z" fill="#1F2A56"/>
<path d="M458.53 24.51C465.75 24.51 471.49 26.76 475.75 31.26C480.01 35.76 482.143 42.5833 482.15 51.73C482.15 60.95 480.017 67.7933 475.75 72.26C471.483 76.7266 465.743 78.96 458.53 78.96H447.09C439.803 78.96 434.043 76.7266 429.81 72.26C425.577 67.7933 423.463 60.95 423.47 51.73C423.47 42.5166 425.583 35.6767 429.81 31.21C434.037 26.7433 439.797 24.51 447.09 24.51H458.53ZM448.12 34.98C443.373 34.98 439.917 36.2867 437.75 38.9C435.583 41.5133 434.5 45.7733 434.5 51.68C434.5 57.6 435.583 61.8466 437.75 64.42C439.917 66.9933 443.373 68.2833 448.12 68.29H457.5C462.24 68.29 465.697 67 467.87 64.42C470.043 61.84 471.123 57.5933 471.11 51.68C471.11 45.7667 470.03 41.5067 467.87 38.9C465.71 36.2933 462.253 34.9866 457.5 34.98H448.12Z" fill="#1F2A56"/>
<path d="M538.04 24.51V35.03H507.93C505.39 35.03 503.56 35.54 502.46 36.57C501.877 37.1855 501.428 37.9163 501.144 38.7155C500.86 39.5146 500.746 40.3643 500.81 41.21C500.755 42.013 500.868 42.8186 501.144 43.5748C501.42 44.331 501.851 45.021 502.41 45.6C503.48 46.6 505.52 47.09 508.55 47.09H521.34C524.496 47.0056 527.646 47.4242 530.67 48.33C532.815 48.9865 534.786 50.114 536.44 51.63C537.824 52.9642 538.837 54.6356 539.38 56.48C539.946 58.4292 540.226 60.4503 540.21 62.48C540.225 64.7352 539.887 66.9788 539.21 69.13C538.599 71.0968 537.518 72.8851 536.06 74.34C534.478 75.8671 532.58 77.0278 530.5 77.74C527.876 78.6243 525.118 79.0439 522.35 78.98H490.71V68.29H522.37C524.91 68.29 526.73 67.8233 527.83 66.89C528.93 65.9566 529.48 64.43 529.48 62.31C529.48 60.11 528.88 58.5433 527.68 57.61C526.48 56.69 524.5 56.22 521.75 56.22H508.82C505.676 56.3142 502.539 55.8782 499.54 54.93C497.382 54.2291 495.419 53.0301 493.81 51.43C492.425 49.9943 491.415 48.2392 490.87 46.32C490.317 44.3683 490.041 42.3485 490.05 40.32C490.05 35.44 491.423 31.5733 494.17 28.72C496.917 25.8666 501.467 24.4633 507.82 24.51H538.04Z" fill="#1F2A56"/>
<path d="M393.21 117.16H371.68C371.93 118.738 372.757 120.167 374 121.17C375.244 122.173 376.815 122.679 378.41 122.59C379.436 122.613 380.451 122.379 381.362 121.909C382.274 121.44 383.054 120.749 383.63 119.9H392.43C389.95 125.64 384.88 129.84 378.43 129.84C376.418 129.85 374.424 129.465 372.561 128.704C370.698 127.944 369.004 126.825 367.574 125.409C364.686 122.551 363.051 118.663 363.03 114.6C363.009 110.537 364.602 106.632 367.461 103.744C370.319 100.856 374.207 99.2212 378.27 99.2C387.07 99.2 393.43 106.2 393.43 114.88C393.431 115.645 393.358 116.409 393.21 117.16ZM378.31 106.45C376.82 106.376 375.352 106.826 374.16 107.724C372.969 108.621 372.13 109.908 371.79 111.36H384.79C384.451 109.915 383.618 108.633 382.435 107.737C381.252 106.84 379.793 106.385 378.31 106.45Z" fill="#66ACD7"/>
<path d="M415.66 128.9V113.23C415.66 110.02 415.04 107.23 411.16 107.23C407.28 107.23 406.24 109.81 406.24 113.23V128.85H397.65V100.19H405.65V103.24H405.75C407.56 100.24 410.09 99.24 413.56 99.24C416.213 99.2622 418.79 100.135 420.91 101.73C423.65 104 424.22 107.63 424.22 110.99V128.94L415.66 128.9Z" fill="#66ACD7"/>
<path d="M458.29 117.16H436.82C437.068 118.739 437.894 120.169 439.138 121.173C440.382 122.176 441.954 122.681 443.55 122.59C444.575 122.612 445.59 122.378 446.502 121.908C447.414 121.438 448.193 120.748 448.77 119.9H457.57C455.08 125.64 450.01 129.84 443.57 129.84C441.558 129.85 439.564 129.465 437.701 128.704C435.839 127.944 434.144 126.825 432.714 125.409C429.826 122.551 428.191 118.663 428.17 114.6C428.149 110.537 429.743 106.632 432.601 103.744C435.459 100.856 439.347 99.2212 443.41 99.2C452.21 99.2 458.57 106.2 458.57 114.88C458.557 115.648 458.463 116.412 458.29 117.16ZM443.39 106.45C441.901 106.378 440.433 106.829 439.242 107.726C438.051 108.623 437.212 109.909 436.87 111.36H449.87C449.531 109.915 448.698 108.633 447.515 107.737C446.332 106.84 444.873 106.385 443.39 106.45Z" fill="#66ACD7"/>
<path d="M471.28 113.12V128.9H462.69V100.19H470.76V103.24H470.87C472.37 100.24 474.75 99.24 478.06 99.24V107.88C474.28 107.95 471.28 108.67 471.28 113.12Z" fill="#66ACD7"/>
<path d="M508.64 134.91C505.79 139.72 499.32 141.68 494.1 141.68C489.23 141.68 484.37 140.18 481.53 136.04C480.586 134.724 479.982 133.195 479.77 131.59H489.7C490.63 133.66 492.6 134.44 494.7 134.44C499.41 134.44 501.7 131.18 501.7 126.63V125.75H501.6C500.1 128.54 496.79 129.84 493.74 129.84C485.15 129.84 479.25 123.11 479.25 114.73C479.25 106.35 484.99 99.2599 493.74 99.2599C496.74 99.2599 500 100.26 501.65 102.88H501.76V100.19H510.35V125.44C510.35 128.64 510.29 132.06 508.64 134.91ZM494.82 107.28C493.895 107.289 492.98 107.481 492.13 107.846C491.28 108.211 490.51 108.74 489.866 109.404C489.221 110.068 488.715 110.853 488.376 111.714C488.037 112.575 487.871 113.495 487.89 114.42C487.89 118.42 490.63 121.81 494.77 121.81C495.708 121.836 496.642 121.668 497.512 121.316C498.382 120.965 499.171 120.437 499.828 119.767C500.485 119.097 500.996 118.298 501.331 117.421C501.665 116.544 501.814 115.607 501.77 114.67C501.76 110.51 499.01 107.28 494.82 107.28Z" fill="#66ACD7"/>
<path d="M528.09 138.51H518.98L523.54 127.51L512.88 100.25H522.04L527.82 116.85H527.92L533.41 100.19H542.52L528.09 138.51Z" fill="#66ACD7"/>
<path d="M15.28 8.50996L41.68 52.64C42.5907 54.1669 43.8921 55.4233 45.45 56.28L45.64 56.38C47.2005 57.233 48.5027 58.4903 49.41 60.02L58.93 75.93C59.1188 76.2468 59.2204 76.608 59.2245 76.9769C59.2286 77.3457 59.135 77.7091 58.9531 78.0301C58.7713 78.351 58.5078 78.6181 58.1894 78.8043C57.8709 78.9905 57.5089 79.089 57.14 79.09H39.14C38.7808 79.0911 38.4274 78.9997 38.1139 78.8245C37.8004 78.6494 37.5373 78.3964 37.35 78.09L33.55 71.74C32.6401 70.2111 32.1502 68.469 32.13 66.69V66.51C32.1097 64.7309 31.6198 62.9889 30.71 61.46L0.339971 10.69C0.151118 10.3731 0.0494881 10.0119 0.0454155 9.64304C0.0413429 9.27418 0.134967 8.91081 0.316778 8.58984C0.498588 8.26888 0.76211 8.00177 1.08057 7.81561C1.39903 7.62946 1.76109 7.53091 2.12996 7.52997H13.52C13.872 7.53272 14.2176 7.62391 14.5252 7.79515C14.8327 7.96639 15.0923 8.2122 15.28 8.50996Z" fill="#1F2A56"/>
<path d="M54.07 8.50997L72.26 38.92C73.1749 40.4445 74.4797 41.6975 76.04 42.55L76.22 42.65C77.7793 43.5083 79.0835 44.7642 80 46.29L97.73 75.93C97.9189 76.2469 98.0205 76.608 98.0246 76.9769C98.0287 77.3457 97.935 77.7091 97.7532 78.0301C97.5714 78.351 97.3079 78.6182 96.9894 78.8043C96.671 78.9905 96.3089 79.089 95.94 79.09H77.94C77.5792 79.0928 77.2237 79.0023 76.9083 78.827C76.5929 78.6518 76.3282 78.3979 76.14 78.09L64.14 58.01C63.228 56.5003 62.7376 54.7736 62.72 53.01V52.8C62.6997 51.021 62.2099 49.2788 61.3 47.75L39.13 10.75C38.9407 10.4324 38.8391 10.0702 38.8354 9.70054C38.8318 9.33083 38.9263 8.96678 39.1093 8.64552C39.2923 8.32425 39.5573 8.05729 39.8771 7.87185C40.197 7.68641 40.5603 7.58915 40.93 7.58997H52.32C52.6648 7.58786 53.0049 7.67069 53.3101 7.83114C53.6153 7.99159 53.8763 8.22474 54.07 8.50997Z" fill="#7051A2"/>
<path d="M93.82 8.50996L103.82 25.19C104.731 26.7168 106.032 27.9733 107.59 28.83L107.78 28.93C109.338 29.7866 110.639 31.0431 111.55 32.57L137.49 75.93C137.679 76.2468 137.78 76.608 137.784 76.9769C137.789 77.3457 137.695 77.7091 137.513 78.0301C137.331 78.351 137.068 78.6181 136.749 78.8043C136.431 78.9905 136.069 79.089 135.7 79.0899H117.7C117.341 79.0911 116.987 78.9997 116.674 78.8245C116.36 78.6494 116.097 78.3964 115.91 78.0899L95.6899 44.29C94.7885 42.7757 94.299 41.052 94.27 39.29V39.08C94.2409 37.318 93.7514 35.5942 92.85 34.08L78.82 10.66C78.6311 10.3431 78.5295 9.98189 78.5254 9.61303C78.5213 9.24418 78.6149 8.8808 78.7968 8.55984C78.9786 8.23888 79.2421 7.97176 79.5606 7.78561C79.879 7.59945 80.2411 7.5009 80.61 7.49997H91.9999C92.3649 7.49563 92.7247 7.58649 93.0439 7.76361C93.363 7.94072 93.6305 8.19796 93.82 8.50996Z" fill="#66ACD7"/>
</g>
<defs>
<clipPath id="clip0_102_36">
<rect width="542.48" height="140.84" fill="white" transform="translate(0 0.839966)"/>
</clipPath>
</defs>
</svg>
