<svg xmlns="http://www.w3.org/2000/svg" xmlns:xlink="http://www.w3.org/1999/xlink" version="1.1" id="Capa_1" x="0px" y="0px" viewBox="0 0 353 353" style="enable-background:new 0 0 353 353;" xml:space="preserve">
<g id="XMLID_351_">
	<g id="XMLID_352_">
		<g id="XMLID_439_">
			<path id="XMLID_440_" style="fill:#6DA8D6;" d="M176.5,338C115.57,338,66,288.43,66,227.5v-117C66,49.57,115.57,0,176.5,0     S287,49.57,287,110.5v117C287,288.43,237.43,338,176.5,338z M176.5,50c-33.359,0-60.5,27.14-60.5,60.5v117     c0,33.36,27.141,60.5,60.5,60.5s60.5-27.14,60.5-60.5v-117C237,77.14,209.859,50,176.5,50z"/>
		</g>
     <path id="XMLID_446_" style="fill:#2974A8;" d="M176.5,0v50c33.359,0,60.5,27.14,60.5,60.5v117c0,33.36-27.141,60.5-60.5,60.5v50    c60.93,0,110.5-49.57,110.5-110.5v-117C287,49.57,237.43,0,176.5,0z"/>
	</g>
 <g id="XMLID_447_">
		<rect id="XMLID_42_" x="41.5" y="149.357" style="fill:#F9E375;" width="270" height="203.643"/>
  <rect id="XMLID_451_" x="176.5" y="149.357" style="fill:#F5D361;" width="135" height="203.643"/>
	</g>
 <g id="XMLID_452_">
		<path id="XMLID_455_" style="fill:#DEDFE8;" d="M216.5,233c0-22.091-17.909-40-40-40s-40,17.909-40,40    c0,14.803,8.047,27.718,20,34.635V303h40v-35.365C208.453,260.718,216.5,247.803,216.5,233z"/>
  <path id="XMLID_460_" style="fill:#C9C7D7;" d="M176.5,193v110h20v-35.365c11.953-6.917,20-19.832,20-34.635    C216.5,210.909,198.591,193,176.5,193z"/>
	</g>
</g>
 <g>
</g>
 <g>
</g>
 <g>
</g>
 <g>
</g>
 <g>
</g>
 <g>
</g>
 <g>
</g>
 <g>
</g>
 <g>
</g>
 <g>
</g>
 <g>
</g>
 <g>
</g>
 <g>
</g>
 <g>
</g>
 <g>
</g>
</svg>