<svg width="187" height="34" viewBox="0 0 140 34" fill="white" xmlns="http://www.w3.org/2000/svg">
<path d="M8.29528 9.60508C5.76148 12.7034 5.06891 16.9592 6.25135 20.5937C7.32399 23.8878 9.6382 25.7093 10.2463 26.1774C12.0031 27.5223 13.6247 27.9308 13.6416 27.9053C13.6669 27.8457 7.02838 26.4243 3.40505 21.1981C2.83073 20.3639 0.862809 17.4359 1.03173 13.4013C1.24288 8.46451 4.47769 5.30665 5.38142 4.42143C10.1112 -0.208954 17.1382 -0.838822 22.1974 0.863525C26.1079 2.18284 28.6079 4.78744 29.1991 5.42582C30.863 7.22179 31.7583 8.99223 32.1637 9.86043C32.8816 11.4181 33.2532 12.8566 33.4559 13.9886C33.515 14.3206 33.2616 14.627 32.9238 14.627C31.4795 14.6185 30.0437 14.61 28.5995 14.6015C28.3545 14.6015 28.1434 14.4397 28.0842 14.2014C27.7126 12.831 26.3528 8.90711 22.2903 6.77067C18.5403 4.79595 14.9592 5.64712 14.199 5.84289C13.2953 6.07271 10.4997 6.91537 8.29528 9.60508Z" fill="url(#paint0_linear)"/>
<path d="M17.3499 28.8246C17.3414 28.5948 17.1641 28.4075 16.936 28.399C15.3144 28.3224 12.5441 27.9393 9.63026 26.271C8.53228 25.6412 4.95118 23.5132 2.99171 19.002C2.42583 17.6912 0.973115 14.3546 1.9444 10.6265C1.9444 10.6265 2.72988 7.00048 5.97314 3.86816C5.97314 3.86816 4.73158 5.10237 4.39374 5.45135C3.27887 6.61745 1.72481 8.95818 0.854871 11.5032C-0.808989 16.3719 0.390342 20.9172 0.837979 22.3812C1.77548 25.4709 3.50691 27.5053 4.46976 28.5522C6.8093 31.0972 9.38532 32.3229 10.914 32.9017C13.3718 33.838 15.5678 34.0082 17.0205 33.9997C17.2654 33.9997 17.4512 33.7954 17.4512 33.5571L17.3499 28.8246Z" fill="url(#paint1_linear)"/>
<path opacity="0.58" d="M21.238 24.003C23.4792 23.7274 25.0716 21.6735 24.7948 19.4155C24.518 17.1575 22.4768 15.5505 20.2357 15.8261C17.9945 16.1018 16.4021 18.1557 16.6789 20.4136C16.9557 22.6716 18.9969 24.2787 21.238 24.003Z" fill="url(#paint2_linear)"/>
<path d="M16.4965 21.9878C19.1762 22.094 21.4357 19.9903 21.5433 17.289C21.6509 14.5877 19.5658 12.3119 16.8861 12.2057C14.2065 12.0996 11.947 14.2033 11.8394 16.9045C11.7318 19.6058 13.8169 21.8817 16.4965 21.9878Z" fill="url(#paint3_linear)"/>
<path opacity="0.34" d="M24.9124 25.8171C26.7229 25.5944 28.0094 23.9352 27.7857 22.1111C27.5621 20.287 25.9132 18.9887 24.1027 19.2114C22.2922 19.434 21.0057 21.0933 21.2294 22.9174C21.453 24.7415 23.1019 26.0398 24.9124 25.8171Z" fill="url(#paint4_linear)"/>
<path d="M47.346 20.81H48.564C49.236 20.81 49.572 20.4647 49.572 19.774V15.224C49.572 14.5333 49.236 14.188 48.564 14.188H47.346C46.674 14.188 46.338 14.5333 46.338 15.224V19.774C46.338 20.4647 46.674 20.81 47.346 20.81ZM49.964 23.862H49.18C48.9747 23.862 48.8253 23.7827 48.732 23.624L47.78 22H47.136C46.4453 22 45.9087 21.8087 45.526 21.426C45.1433 21.0433 44.952 20.5113 44.952 19.83V15.168C44.952 14.4773 45.1433 13.9453 45.526 13.572C45.9087 13.1893 46.4453 12.998 47.136 12.998H48.76C49.4507 12.998 49.9827 13.1893 50.356 13.572C50.7387 13.9453 50.93 14.4773 50.93 15.168V19.83C50.93 20.4367 50.776 20.9267 50.468 21.3C50.1693 21.664 49.7447 21.8833 49.194 21.958L50.132 23.568C50.1787 23.6613 50.1833 23.7313 50.146 23.778C50.1087 23.834 50.048 23.862 49.964 23.862ZM57.6283 12.998H58.5103C58.6783 12.998 58.7623 13.0727 58.7623 13.222V19.83C58.7623 20.5113 58.5663 21.0433 58.1743 21.426C57.7917 21.8087 57.2597 22 56.5783 22H55.0243C54.343 22 53.811 21.8087 53.4283 21.426C53.0457 21.0433 52.8543 20.5113 52.8543 19.83V13.236C52.8543 13.0773 52.9337 12.998 53.0923 12.998H53.9743C54.133 12.998 54.2123 13.0773 54.2123 13.236V19.774C54.2123 20.4647 54.5483 20.81 55.2203 20.81H56.3683C57.0497 20.81 57.3903 20.4647 57.3903 19.774V13.236C57.3903 13.0773 57.4697 12.998 57.6283 12.998ZM62.1453 13.236V21.762C62.1453 21.9207 62.066 22 61.9073 22H61.0253C60.8666 22 60.7873 21.9207 60.7873 21.762V13.236C60.7873 13.0773 60.8666 12.998 61.0253 12.998H61.9073C62.066 12.998 62.1453 13.0773 62.1453 13.236ZM65.3643 22H64.4963C64.3377 22 64.2583 21.9207 64.2583 21.762V13.236C64.2583 13.0773 64.3377 12.998 64.4963 12.998H65.2803C65.4297 12.998 65.5323 13.0493 65.5883 13.152L68.9763 19.242H69.0323V13.236C69.0323 13.0773 69.1117 12.998 69.2703 12.998H70.1383C70.297 12.998 70.3763 13.0773 70.3763 13.236V21.762C70.3763 21.9207 70.297 22 70.1383 22H69.3823C69.233 22 69.1117 21.9253 69.0183 21.776L65.6583 15.756H65.6023V21.762C65.6023 21.9207 65.523 22 65.3643 22ZM74.8844 22H74.0024C73.8344 22 73.7504 21.9207 73.7504 21.762V14.328C73.7504 14.2347 73.7038 14.188 73.6104 14.188H71.8464C71.6784 14.188 71.5944 14.1087 71.5944 13.95V13.236C71.5944 13.0773 71.6784 12.998 71.8464 12.998H77.0404C77.2084 12.998 77.2924 13.0773 77.2924 13.236V13.95C77.2924 14.1087 77.2084 14.188 77.0404 14.188H75.2764C75.1738 14.188 75.1224 14.2347 75.1224 14.328V21.762C75.1224 21.9207 75.0431 22 74.8844 22ZM83.2088 22H78.7288C78.5701 22 78.4908 21.9207 78.4908 21.762V13.236C78.4908 13.0773 78.5701 12.998 78.7288 12.998H83.2088C83.3581 12.998 83.4328 13.0773 83.4328 13.236V13.95C83.4328 14.1087 83.3581 14.188 83.2088 14.188H80.0168C79.9048 14.188 79.8488 14.2347 79.8488 14.328V16.694C79.8488 16.7873 79.9048 16.834 80.0168 16.834H82.7188C82.8868 16.834 82.9708 16.9133 82.9708 17.072V17.786C82.9708 17.9447 82.8868 18.024 82.7188 18.024H80.0168C79.9048 18.024 79.8488 18.0707 79.8488 18.164V20.656C79.8488 20.7587 79.9048 20.81 80.0168 20.81H83.2088C83.3581 20.81 83.4328 20.8893 83.4328 21.048V21.762C83.4328 21.9207 83.3581 22 83.2088 22ZM85.0493 19.816V19.452C85.0493 19.2933 85.1286 19.214 85.2873 19.214H86.1833C86.342 19.214 86.4213 19.2933 86.4213 19.452V19.704C86.4213 20.096 86.5053 20.3807 86.6733 20.558C86.8506 20.726 87.14 20.81 87.5413 20.81H88.5073C88.9086 20.81 89.198 20.7213 89.3753 20.544C89.5526 20.3573 89.6413 20.0587 89.6413 19.648V19.326C89.6413 19.0273 89.5246 18.794 89.2913 18.626C89.0673 18.4487 88.7873 18.3367 88.4513 18.29C88.1153 18.234 87.7466 18.1593 87.3453 18.066C86.944 17.9727 86.5753 17.8653 86.2393 17.744C85.9033 17.6227 85.6186 17.394 85.3853 17.058C85.1613 16.722 85.0493 16.2927 85.0493 15.77V15.182C85.0493 14.5007 85.2406 13.9687 85.6233 13.586C86.0153 13.194 86.552 12.998 87.2333 12.998H88.7173C89.408 12.998 89.9446 13.194 90.3273 13.586C90.7193 13.9687 90.9153 14.5007 90.9153 15.182V15.49C90.9153 15.6487 90.836 15.728 90.6773 15.728H89.7813C89.6226 15.728 89.5433 15.6487 89.5433 15.49V15.308C89.5433 14.9067 89.4546 14.622 89.2773 14.454C89.1093 14.2767 88.8246 14.188 88.4233 14.188H87.5413C87.14 14.188 86.8506 14.2813 86.6733 14.468C86.5053 14.6453 86.4213 14.9533 86.4213 15.392V15.826C86.4213 16.246 86.7246 16.5307 87.3313 16.68C87.602 16.7453 87.896 16.8013 88.2133 16.848C88.54 16.8947 88.8666 16.9647 89.1933 17.058C89.52 17.1513 89.8186 17.2773 90.0893 17.436C90.36 17.5853 90.5793 17.8187 90.7473 18.136C90.9153 18.444 90.9993 18.822 90.9993 19.27V19.816C90.9993 20.4973 90.8033 21.034 90.4113 21.426C90.0286 21.8087 89.4966 22 88.8153 22H87.2473C86.566 22 86.0293 21.8087 85.6373 21.426C85.2453 21.034 85.0493 20.4973 85.0493 19.816ZM92.7192 19.816V19.452C92.7192 19.2933 92.7986 19.214 92.9572 19.214H93.8532C94.0119 19.214 94.0912 19.2933 94.0912 19.452V19.704C94.0912 20.096 94.1752 20.3807 94.3432 20.558C94.5206 20.726 94.8099 20.81 95.2112 20.81H96.1772C96.5786 20.81 96.8679 20.7213 97.0452 20.544C97.2226 20.3573 97.3112 20.0587 97.3112 19.648V19.326C97.3112 19.0273 97.1946 18.794 96.9612 18.626C96.7372 18.4487 96.4572 18.3367 96.1212 18.29C95.7852 18.234 95.4166 18.1593 95.0152 18.066C94.6139 17.9727 94.2452 17.8653 93.9092 17.744C93.5732 17.6227 93.2886 17.394 93.0552 17.058C92.8312 16.722 92.7192 16.2927 92.7192 15.77V15.182C92.7192 14.5007 92.9106 13.9687 93.2932 13.586C93.6852 13.194 94.2219 12.998 94.9032 12.998H96.3872C97.0779 12.998 97.6146 13.194 97.9972 13.586C98.3892 13.9687 98.5852 14.5007 98.5852 15.182V15.49C98.5852 15.6487 98.5059 15.728 98.3472 15.728H97.4512C97.2926 15.728 97.2132 15.6487 97.2132 15.49V15.308C97.2132 14.9067 97.1246 14.622 96.9472 14.454C96.7792 14.2767 96.4946 14.188 96.0932 14.188H95.2112C94.8099 14.188 94.5206 14.2813 94.3432 14.468C94.1752 14.6453 94.0912 14.9533 94.0912 15.392V15.826C94.0912 16.246 94.3946 16.5307 95.0012 16.68C95.2719 16.7453 95.5659 16.8013 95.8832 16.848C96.2099 16.8947 96.5366 16.9647 96.8632 17.058C97.1899 17.1513 97.4886 17.2773 97.7592 17.436C98.0299 17.5853 98.2492 17.8187 98.4172 18.136C98.5852 18.444 98.6692 18.822 98.6692 19.27V19.816C98.6692 20.4973 98.4732 21.034 98.0812 21.426C97.6986 21.8087 97.1666 22 96.4852 22H94.9172C94.2359 22 93.6992 21.8087 93.3072 21.426C92.9152 21.034 92.7192 20.4973 92.7192 19.816ZM105.275 22H100.795C100.636 22 100.557 21.9207 100.557 21.762V13.236C100.557 13.0773 100.636 12.998 100.795 12.998H105.275C105.424 12.998 105.499 13.0773 105.499 13.236V13.95C105.499 14.1087 105.424 14.188 105.275 14.188H102.083C101.971 14.188 101.915 14.2347 101.915 14.328V16.694C101.915 16.7873 101.971 16.834 102.083 16.834H104.785C104.953 16.834 105.037 16.9133 105.037 17.072V17.786C105.037 17.9447 104.953 18.024 104.785 18.024H102.083C101.971 18.024 101.915 18.0707 101.915 18.164V20.656C101.915 20.7587 101.971 20.81 102.083 20.81H105.275C105.424 20.81 105.499 20.8893 105.499 21.048V21.762C105.499 21.9207 105.424 22 105.275 22ZM108.39 22H107.522C107.363 22 107.284 21.9207 107.284 21.762V13.236C107.284 13.0773 107.363 12.998 107.522 12.998H108.306C108.455 12.998 108.558 13.0493 108.614 13.152L112.002 19.242H112.058V13.236C112.058 13.0773 112.137 12.998 112.296 12.998H113.164C113.322 12.998 113.402 13.0773 113.402 13.236V21.762C113.402 21.9207 113.322 22 113.164 22H112.408C112.258 22 112.137 21.9253 112.044 21.776L108.684 15.756H108.628V21.762C108.628 21.9207 108.548 22 108.39 22ZM117.91 22H117.028C116.86 22 116.776 21.9207 116.776 21.762V14.328C116.776 14.2347 116.729 14.188 116.636 14.188H114.872C114.704 14.188 114.62 14.1087 114.62 13.95V13.236C114.62 13.0773 114.704 12.998 114.872 12.998H120.066C120.234 12.998 120.318 13.0773 120.318 13.236V13.95C120.318 14.1087 120.234 14.188 120.066 14.188H118.302C118.199 14.188 118.148 14.2347 118.148 14.328V21.762C118.148 21.9207 118.068 22 117.91 22ZM122.944 13.236V21.762C122.944 21.9207 122.865 22 122.706 22H121.824C121.665 22 121.586 21.9207 121.586 21.762V13.236C121.586 13.0773 121.665 12.998 121.824 12.998H122.706C122.865 12.998 122.944 13.0773 122.944 13.236ZM125.547 22H124.539C124.408 22 124.362 21.9207 124.399 21.762L126.835 13.236C126.882 13.0773 126.994 12.998 127.171 12.998H128.571C128.758 12.998 128.87 13.0773 128.907 13.236L131.343 21.762C131.38 21.9207 131.329 22 131.189 22H130.195C130.111 22 130.05 21.986 130.013 21.958C129.985 21.9207 129.962 21.8553 129.943 21.762L129.411 19.942H126.331L125.799 21.762C125.762 21.9207 125.678 22 125.547 22ZM127.843 14.342L126.611 18.822H129.145L127.899 14.342H127.843ZM137.501 22H132.965C132.806 22 132.727 21.9207 132.727 21.762V13.236C132.727 13.0773 132.806 12.998 132.965 12.998H133.847C134.006 12.998 134.085 13.0773 134.085 13.236V20.642C134.085 20.7353 134.141 20.782 134.253 20.782H137.501C137.66 20.782 137.739 20.866 137.739 21.034V21.762C137.739 21.9207 137.66 22 137.501 22Z" fill="white"/>
<defs>
<linearGradient id="paint0_linear" x1="-5.77039" y1="-0.941473" x2="8.47671" y2="32.6805" gradientUnits="userSpaceOnUse">
<stop offset="0.0808308" stop-color="white"/>
<stop offset="0.334832" stop-color="white"/>
<stop offset="0.569128" stop-color="white"/>
<stop offset="0.724607" stop-color="white"/>
<stop offset="1" stop-color="red"/>
</linearGradient>
<linearGradient id="paint1_linear" x1="-3.65338" y1="2.85161" x2="17.4802" y2="27.6974" gradientUnits="userSpaceOnUse">
<stop offset="0.0808308" stop-color="white"/>
<stop offset="0.334832" stop-color="white"/>
<stop offset="0.569128" stop-color="white"/>
<stop offset="0.724607" stop-color="white"/>
<stop offset="1" stop-color="white"/>
</linearGradient>
<linearGradient id="paint2_linear" x1="16.6742" y1="20.4184" x2="24.7956" y2="19.4228" gradientUnits="userSpaceOnUse">
<stop stop-color="white"/>
<stop offset="0.0557587" stop-color="white"/>
<stop offset="0.4119" stop-color="white"/>
<stop offset="0.7368" stop-color="white"/>
<stop offset="1" stop-color="white"/>
</linearGradient>
<linearGradient id="paint3_linear" x1="3.74336" y1="14.2113" x2="16.1192" y2="26.1572" gradientUnits="userSpaceOnUse">
<stop offset="0.0808308" stop-color="white"/>
<stop offset="0.334832" stop-color="white"/>
<stop offset="0.569128" stop-color="white"/>
<stop offset="0.724607" stop-color="white"/>
<stop offset="1" stop-color="white"/>
</linearGradient>
<linearGradient id="paint4_linear" x1="21.226" y1="22.9145" x2="27.7869" y2="22.1102" gradientUnits="userSpaceOnUse">
<stop stop-color="white"/>
<stop offset="0.0557587" stop-color="white"/>
<stop offset="0.4119" stop-color="white"/>
<stop offset="0.7368" stop-color="white"/>
<stop offset="1" stop-color="white"/>
</linearGradient>
</defs>
</svg>
