<svg xmlns="http://www.w3.org/2000/svg" xmlns:xlink="http://www.w3.org/1999/xlink" version="1.1" id="Layer_1" x="0px" y="0px" viewBox="0 0 512 512" style="enable-background:new 0 0 512 512;" xml:space="preserve">
<path style="fill:#2D2D2D;" d="M0,355.201v-324c0.103-5.701,4.699-10.297,10.4-10.4h491.2c5.701,0.103,10.297,4.699,10.4,10.4v324H0  z"/>
  <g>
	<path style="fill:#BCBCBC;" d="M512,355.201v41.6c-0.103,5.701-4.699,10.297-10.4,10.4H10.4c-5.701-0.103-10.297-4.699-10.4-10.4   v-41.6H512z"/>
    <rect x="146.401" y="480.799" style="fill:#BCBCBC;" width="219.197" height="10.4"/>
</g>
  <polygon style="fill:#2D2D2D;" points="328.8,480.802 183.2,480.802 193.6,407.202 318.4,407.202 "/>
  <rect x="20.802" y="41.605" style="fill:#FFFFFF;" width="470.397" height="292.803"/>
  <polygon points="318.4,407.202 193.6,407.202 187.793,448.282 320.272,420.426 "/>
  <circle style="fill:#2D2D2D;" cx="378.97" cy="180.181" r="20.762"/>
  <path style="fill:#E21B1B;" d="M447.153,190.401v-20.448l-20.8-2.08c-1.18-4.324-2.98-8.455-5.344-12.264l13.392-16.408l-14.4-14.44  l-17.056,13.952c-3.611-1.907-7.457-3.33-11.44-4.232L389.226,112h-20.528l-2.248,22.456c-3.983,0.902-7.829,2.325-11.44,4.232  l-17.056-13.952L323.506,139.2l13.416,16.4c-2.362,3.809-4.162,7.94-5.344,12.264l-20.8,2.08V190.4l20.8,2.08  c1.181,4.315,2.972,8.439,5.32,12.248l-13.425,16.409l14.456,14.456l17.088-13.992c3.611,1.906,7.457,3.329,11.44,4.232  l2.248,22.448h20.528l2.248-22.456c3.983-0.902,7.829-2.325,11.44-4.232l17.08,13.992l14.4-14.456l-13.4-16.408  c2.349-3.808,4.14-7.933,5.32-12.248L447.153,190.401z M378.96,210.929c-16.984,0-30.752-13.768-30.752-30.752  s13.768-30.752,30.752-30.752c16.984,0,30.752,13.768,30.752,30.752c0,16.981-13.763,30.748-30.744,30.752H378.96z"/>
  <circle style="fill:#2D2D2D;" cx="177.14" cy="185.855" r="34.184"/>
  <path style="fill:#999999;" d="M289.432,202.682v-33.664l-34.232-3.416c-1.944-7.12-4.907-13.921-8.8-20.192l22.064-27.008  l-23.808-23.808l-28.08,23.008c-5.943-3.14-12.276-5.483-18.832-6.968l-3.704-37.032H160.23l-3.696,36.976  c-6.556,1.485-12.889,3.828-18.832,6.968l-28.104-22.952l-23.792,23.808l22.096,27c-3.89,6.272-6.853,13.073-8.8,20.192  l-34.264,3.424v33.664l34.32,3.432c1.958,7.108,4.921,13.899,8.8,20.168l-22.112,27.024l23.752,23.8l28.08-22.976  c5.944,3.139,12.276,5.482,18.832,6.968l3.696,36.976h33.808l3.696-36.976c6.556-1.485,12.889-3.828,18.832-6.968l28.08,22.976  l23.808-23.808l-22.112-27.024c3.88-6.268,6.843-13.06,8.8-20.168L289.432,202.682z M177.136,236.49  c-27.968,0-50.64-22.673-50.64-50.64s22.673-50.64,50.64-50.64s50.64,22.673,50.64,50.64S205.104,236.49,177.136,236.49  L177.136,236.49z"/>
  <g>
</g>
  <g>
</g>
  <g>
</g>
  <g>
</g>
  <g>
</g>
  <g>
</g>
  <g>
</g>
  <g>
</g>
  <g>
</g>
  <g>
</g>
  <g>
</g>
  <g>
</g>
  <g>
</g>
  <g>
</g>
  <g>
</g>
</svg>