<svg width="200" height="62" viewBox="0 0 249 62" fill="none" xmlns="http://www.w3.org/2000/svg">
<path d="M86.4117 3.72104C87.9291 3.68555 89.4394 3.93931 90.8615 4.46871C92.02 4.90793 93.0713 5.58861 93.9455 6.46539C94.7436 7.29725 95.3457 8.29642 95.7078 9.39005C96.0879 10.515 96.2799 11.6948 96.2762 12.8821C96.2724 14.0509 96.0957 15.2128 95.7519 16.3301C95.4096 17.4657 94.8283 18.5153 94.0469 19.4087C93.1897 20.355 92.1376 21.1052 90.9628 21.6077C89.5226 22.2255 87.9656 22.5255 86.3985 22.4873H76.8689C76.7638 22.4725 76.6567 22.4823 76.5561 22.5161C76.4555 22.5498 76.3641 22.6065 76.2893 22.6816C76.2145 22.7568 76.1582 22.8483 76.125 22.9489C76.0917 23.0495 76.0825 23.1565 76.0979 23.2613V34.3355H70.7361V22.2234C70.7361 20.5023 71.115 19.2635 71.8728 18.5071C72.6262 17.7506 73.8554 17.3724 75.5516 17.3724H86.5923C87.2616 17.3911 87.9271 17.2667 88.5441 17.0074C89.0529 16.7981 89.5056 16.4727 89.8658 16.0574C90.1988 15.6695 90.4545 15.2217 90.6192 14.738C90.7839 14.2324 90.8671 13.704 90.8659 13.1723C90.8899 12.1196 90.5263 11.0946 89.8438 10.2917C89.1653 9.49122 88.0815 9.09099 86.6408 9.09099H70.692V3.72104H86.4117Z" fill="white"/>
<path d="M113.763 10.41C115.059 10.3807 116.351 10.5802 117.578 10.9994C118.564 11.3436 119.458 11.9093 120.191 12.653C120.874 13.3655 121.38 14.2289 121.666 15.1731C121.972 16.1869 122.121 17.2414 122.107 18.3V29.5501C122.119 30.2882 122.051 31.0255 121.904 31.7491C121.795 32.2997 121.536 32.8095 121.155 33.2224C120.732 33.6343 120.206 33.9245 119.631 34.0624C118.821 34.2623 117.989 34.3539 117.155 34.3351H105.947C103.101 34.3351 101.045 33.6857 99.7788 32.3868C98.5128 31.0879 97.8843 29.3038 97.8931 27.0345C97.8783 26.0492 98.0271 25.0684 98.3337 24.1318C98.6049 23.3083 99.0809 22.5668 99.7171 21.9768C100.439 21.3418 101.294 20.876 102.22 20.6134C103.445 20.2707 104.714 20.1107 105.986 20.1384H117.393V18.3264C117.418 17.4618 117.118 16.6191 116.551 15.9647C115.993 15.3314 115.048 15.0147 113.714 15.0147H99.3602V10.41H113.763ZM116.08 29.6864C116.961 29.6864 117.402 29.2774 117.402 28.4594V23.9471H106.079C104.807 23.9471 103.914 24.1963 103.4 24.6947C103.135 24.9671 102.929 25.2914 102.796 25.6471C102.662 26.0029 102.604 26.3824 102.625 26.7618C102.607 27.1468 102.666 27.5314 102.8 27.8932C102.933 28.2549 103.137 28.5865 103.4 28.8684C103.911 29.3991 104.773 29.6645 105.986 29.6645L116.08 29.6864Z" fill="white"/>
<path d="M144.114 10.4096V15.0363H135.663C133.607 15.0363 132.579 16.0625 132.579 18.1149V34.3347H127.755V17.3716C127.755 14.9527 128.247 13.1833 129.231 12.0632C130.215 10.9432 131.897 10.392 134.276 10.4096H144.114Z" fill="white"/>
<path d="M163.058 10.41C164.355 10.3807 165.647 10.5802 166.874 10.9994C167.86 11.3436 168.754 11.9093 169.486 12.653C170.17 13.3664 170.677 14.2294 170.967 15.1731C171.27 16.1874 171.418 17.2416 171.407 18.3V29.5501C171.418 30.2884 171.348 31.0257 171.2 31.7491C171.095 32.301 170.835 32.8118 170.451 33.2224C170.03 33.6342 169.504 33.9244 168.931 34.0624C168.121 34.262 167.289 34.3537 166.455 34.3351H155.243C152.396 34.3351 150.34 33.6857 149.075 32.3868C147.809 31.0879 147.18 29.3038 147.189 27.0345C147.176 26.0494 147.325 25.0689 147.629 24.1318C147.901 23.3072 148.378 22.5654 149.017 21.9768C149.737 21.3409 150.591 20.8749 151.515 20.6134C152.742 20.2705 154.013 20.1104 155.287 20.1384H166.689V18.3264C166.716 17.4615 166.415 16.6182 165.847 15.9647C165.289 15.3314 164.343 15.0147 163.01 15.0147H148.656V10.41H163.058ZM165.376 29.6864C166.257 29.6864 166.697 29.2774 166.697 28.4594V23.9471H155.379C154.11 23.9471 153.217 24.1963 152.7 24.6947C152.436 24.9675 152.231 25.2919 152.098 25.6477C151.965 26.0034 151.908 26.3828 151.929 26.7618C151.911 27.1465 151.969 27.531 152.102 27.8928C152.234 28.2546 152.438 28.5863 152.7 28.8684C153.214 29.3991 154.078 29.6645 155.291 29.6645L165.376 29.6864Z" fill="white"/>
<path d="M181.915 0V34.3351H177.099V0H181.915Z" fill="white"/>
<path d="M201.996 10.4102C205.177 10.4102 207.706 11.3997 209.583 13.3788C211.46 15.3579 212.4 18.3588 212.402 22.3815C212.402 26.4364 211.463 29.4461 209.583 31.4106C207.703 33.375 205.174 34.3572 201.996 34.3572H196.956C193.746 34.3572 191.208 33.375 189.343 31.4106C187.478 29.4461 186.547 26.4364 186.55 22.3815C186.55 18.3295 187.481 15.3213 189.343 13.3568C191.205 11.3924 193.743 10.4102 196.956 10.4102H201.996ZM197.41 15.0149C195.319 15.0149 193.796 15.5895 192.841 16.7389C191.886 17.8882 191.409 19.7618 191.409 22.3595C191.409 24.9631 191.886 26.8308 192.841 27.9625C193.796 29.0943 195.319 29.6616 197.41 29.6646H201.542C203.631 29.6646 205.154 29.0972 206.111 27.9625C207.069 26.8279 207.544 24.9602 207.539 22.3595C207.539 19.7588 207.063 17.8853 206.111 16.7389C205.159 15.5925 203.637 15.0178 201.542 15.0149H197.41Z" fill="white"/>
<path d="M237.026 10.4097V15.0364H223.761C222.641 15.0364 221.835 15.2607 221.351 15.7137C221.094 15.9844 220.896 16.3058 220.771 16.6572C220.646 17.0087 220.596 17.3824 220.624 17.7543C220.599 18.1075 220.649 18.4618 220.771 18.7944C220.892 19.127 221.082 19.4304 221.329 19.685C221.8 20.1248 222.699 20.3403 224.034 20.3403H229.669C231.059 20.3032 232.447 20.4873 233.779 20.8857C234.724 21.1744 235.593 21.6703 236.321 22.337C236.931 22.9238 237.377 23.6589 237.617 24.4701C237.866 25.3273 237.989 26.2162 237.982 27.1088C237.989 28.1007 237.84 29.0874 237.542 30.0335C237.272 30.8985 236.796 31.685 236.154 32.3249C235.457 32.9965 234.621 33.507 233.704 33.8202C232.548 34.2091 231.333 34.3936 230.114 34.3655H216.174V29.6641H230.122C231.241 29.6641 232.043 29.4588 232.528 29.0484C233.013 28.6379 233.255 27.9664 233.255 27.0341C233.255 26.0665 232.991 25.3775 232.462 24.967C231.933 24.5624 231.061 24.3557 229.849 24.3557H224.153C222.768 24.3972 221.385 24.2054 220.064 23.7884C219.113 23.4801 218.248 22.9528 217.54 22.2491C216.929 21.6177 216.484 20.8457 216.244 20.0017C216.001 19.1433 215.879 18.2551 215.883 17.3629C215.883 15.2167 216.488 13.5161 217.698 12.2612C218.908 11.0063 220.913 10.3892 223.712 10.4097H237.026Z" fill="white"/>
<path d="M173.218 51.1576H163.732C163.843 51.8515 164.207 52.4799 164.755 52.9211C165.302 53.3623 165.995 53.5848 166.698 53.5457C167.149 53.556 167.597 53.4531 167.998 53.2464C168.4 53.0397 168.743 52.7359 168.997 52.3626H172.874C171.782 54.8871 169.548 56.7342 166.706 56.7342C165.82 56.7388 164.941 56.5692 164.121 56.2348C163.3 55.9005 162.553 55.4081 161.923 54.7857C160.651 53.5287 159.931 51.8186 159.921 50.0317C159.912 48.2447 160.614 46.5273 161.873 45.2571C163.133 43.9869 164.846 43.2681 166.636 43.2588C170.513 43.2588 173.315 46.3374 173.315 50.1548C173.316 50.4914 173.283 50.8273 173.218 51.1576ZM166.653 46.4473C165.997 46.4146 165.35 46.6128 164.825 47.0074C164.3 47.4021 163.931 47.968 163.781 48.6067H169.508C169.359 47.9711 168.992 47.4075 168.471 47.0133C167.95 46.619 167.307 46.4188 166.653 46.4473Z" fill="white"/>
<path d="M183.109 56.3208V49.4292C183.109 48.0174 182.836 46.7904 181.126 46.7904C179.417 46.7904 178.959 47.925 178.959 49.4292V56.2988H175.174V43.6942H178.699V45.0356H178.743C179.54 43.7162 180.655 43.2764 182.184 43.2764C183.353 43.2861 184.488 43.67 185.422 44.3715C186.629 45.3698 186.88 46.9663 186.88 48.444V56.3384L183.109 56.3208Z" fill="white"/>
<path d="M201.89 51.1576H192.431C192.541 51.8519 192.905 52.4809 193.453 52.9223C194.001 53.3637 194.693 53.5859 195.396 53.5457C195.848 53.5556 196.295 53.4525 196.697 53.2459C197.099 53.0392 197.442 52.7356 197.696 52.3626H201.573C200.476 54.8871 198.243 56.7342 195.405 56.7342C194.519 56.7388 193.64 56.5692 192.82 56.2348C191.999 55.9005 191.252 55.4081 190.622 54.7857C189.35 53.5287 188.63 51.8186 188.62 50.0317C188.611 48.2447 189.313 46.5273 190.572 45.2571C191.832 43.9869 193.545 43.2681 195.335 43.2588C199.212 43.2588 202.014 46.3374 202.014 50.1548C202.008 50.4925 201.967 50.8285 201.89 51.1576ZM195.326 46.4473C194.67 46.4155 194.023 46.614 193.499 47.0085C192.974 47.403 192.604 47.9685 192.453 48.6067H198.181C198.032 47.9711 197.665 47.4075 197.143 47.0133C196.622 46.619 195.979 46.4188 195.326 46.4473Z" fill="white"/>
<path d="M207.614 49.3808V56.3208H203.829V43.6942H207.384V45.0356H207.433C208.094 43.7162 209.142 43.2764 210.601 43.2764V47.0762C208.935 47.107 207.614 47.4237 207.614 49.3808Z" fill="white"/>
<path d="M224.073 58.964C222.818 61.0794 219.967 61.9414 217.667 61.9414C215.522 61.9414 213.381 61.2817 212.129 59.461C211.714 58.8822 211.447 58.21 211.354 57.5039H215.729C216.139 58.4142 217.007 58.7573 217.932 58.7573C220.007 58.7573 221.016 57.3235 221.016 55.3225V54.9354H220.972C220.311 56.1625 218.853 56.7342 217.509 56.7342C213.724 56.7342 211.125 53.7744 211.125 50.0888C211.125 46.4033 213.654 43.2852 217.509 43.2852C218.83 43.2852 220.267 43.725 220.994 44.8772H221.042V43.6942H224.827V54.7991C224.827 56.2065 224.8 57.7106 224.073 58.964ZM217.985 46.8123C217.577 46.8163 217.174 46.901 216.799 47.0613C216.425 47.2217 216.086 47.4546 215.802 47.7466C215.518 48.0386 215.295 48.3839 215.145 48.7626C214.996 49.1412 214.923 49.5457 214.931 49.9525C214.931 51.7117 216.139 53.2026 217.963 53.2026C218.376 53.214 218.787 53.14 219.171 52.9854C219.554 52.8308 219.901 52.5989 220.191 52.3042C220.48 52.0094 220.706 51.6582 220.853 51.2724C221 50.8867 221.066 50.4748 221.047 50.0625C221.042 48.2329 219.831 46.8123 217.985 46.8123Z" fill="white"/>
<path d="M232.643 60.5474H228.629L230.638 55.7097L225.941 43.7207H229.977L232.524 51.0214H232.568L234.986 43.6943H239L232.643 60.5474Z" fill="white"/>
<path d="M6.712 3.37338L18.3431 22.7817C18.7444 23.4532 19.3177 24.0058 20.0041 24.3826L20.0878 24.4266C20.7753 24.8017 21.349 25.3547 21.7488 26.0274L25.943 33.0246C26.0262 33.164 26.071 33.3229 26.0728 33.4851C26.0746 33.6473 26.0333 33.8071 25.9532 33.9483C25.8731 34.0894 25.757 34.2069 25.6167 34.2888C25.4764 34.3706 25.3169 34.414 25.1544 34.4144H17.2241C17.0659 34.4149 16.9102 34.3747 16.772 34.2977C16.6339 34.2206 16.518 34.1094 16.4355 33.9746L14.7613 31.1819C14.3604 30.5095 14.1446 29.7433 14.1357 28.9609V28.8817C14.1267 28.0993 13.9109 27.3332 13.5101 26.6608L0.12983 4.33214C0.046626 4.19278 0.00185041 4.03393 5.61352e-05 3.87171C-0.00173814 3.70949 0.0395103 3.54967 0.119611 3.40852C0.199712 3.26736 0.315813 3.14988 0.456119 3.06801C0.596424 2.98614 0.755936 2.9428 0.918453 2.94238H5.93659C6.09166 2.94359 6.24395 2.9837 6.37944 3.05901C6.51494 3.13432 6.62929 3.24243 6.712 3.37338Z" fill="white"/>
<path d="M23.8019 3.37338L31.8159 16.7477C32.219 17.4182 32.7938 17.9692 33.4813 18.3441L33.5606 18.3881C34.2475 18.7656 34.8221 19.3179 35.2259 19.989L43.0373 33.0246C43.1205 33.164 43.1653 33.3228 43.1671 33.4851C43.1689 33.6473 43.1276 33.8071 43.0475 33.9483C42.9674 34.0894 42.8513 34.2069 42.711 34.2888C42.5707 34.3706 42.4112 34.414 42.2487 34.4144H34.3184C34.1594 34.4157 34.0028 34.3758 33.8638 34.2988C33.7248 34.2217 33.6082 34.11 33.5253 33.9746L28.2385 25.1434C27.8366 24.4795 27.6206 23.7201 27.6128 22.9444V22.8521C27.6039 22.0697 27.3881 21.3035 26.9872 20.6311L17.2197 4.35853C17.1363 4.21885 17.0915 4.05959 17.0899 3.89699C17.0883 3.73439 17.13 3.57428 17.2106 3.43299C17.2912 3.2917 17.4079 3.17429 17.5489 3.09274C17.6898 3.01118 17.8498 2.9684 18.0127 2.96877H23.0309C23.1828 2.96784 23.3326 3.00426 23.4671 3.07483C23.6015 3.1454 23.7165 3.24793 23.8019 3.37338Z" fill="white"/>
<path d="M41.3146 3.37297L45.7204 10.7088C46.1216 11.3803 46.695 11.9329 47.3813 12.3097L47.465 12.3537C48.1514 12.7304 48.7248 13.283 49.126 13.9545L60.5545 33.0242C60.6377 33.1636 60.6825 33.3224 60.6843 33.4847C60.6861 33.6469 60.6448 33.8067 60.5647 33.9479C60.4846 34.089 60.3685 34.2065 60.2282 34.2884C60.0879 34.3702 59.9284 34.4136 59.7659 34.414H51.8355C51.6773 34.4145 51.5216 34.3743 51.3835 34.2973C51.2453 34.2202 51.1294 34.109 51.0469 33.9742L42.1385 19.109C41.7414 18.443 41.5257 17.6849 41.5129 16.91V16.8176C41.5001 16.0427 41.2844 15.2846 40.8873 14.6186L34.706 4.31854C34.6228 4.17918 34.5781 4.02032 34.5763 3.8581C34.5745 3.69588 34.6157 3.53607 34.6958 3.39491C34.7759 3.25375 34.892 3.13627 35.0323 3.0544C35.1726 2.97253 35.3321 2.92919 35.4947 2.92878H40.5128C40.6736 2.92687 40.8321 2.96683 40.9727 3.04473C41.1133 3.12262 41.2312 3.23575 41.3146 3.37297Z" fill="white"/>
</svg>
