<svg fill="none" height="30" viewBox="0 0 18 18" width="30" xmlns="http://www.w3.org/2000/svg"><g fill="#d9414f"><path d="m14 7h-8v2h8z"/><path d="m12 12h2v1h-2z"/><path d="m6 3c-1.65685 0-3 1.34315-3 3v8c0 1.6569 1.34315 3 3 3h8c1.6569 0 3-1.3431 3-3v-8c0-1.65685-1.3431-3-3-3zm-1 4c0-.55228.44772-1 1-1h8c.5523 0 1 .44772 1 1v2c0 .55228-.4477 1-1 1h-8c-.55228 0-1-.44771-1-1zm7 4h2c.5523 0 1 .4477 1 1v1c0 .5523-.4477 1-1 1h-2c-.5523 0-1-.4477-1-1v-1c0-.5523.4477-1 1-1zm-7 .5c0-.2761.22386-.5.5-.5h4c.27614 0 .5.2239.5.5s-.22386.5-.5.5h-4c-.27614 0-.5-.2239-.5-.5zm.5 1.5h4c.27614 0 .5.2239.5.5s-.22386.5-.5.5h-4c-.27614 0-.5-.2239-.5-.5s.22386-.5.5-.5z"/></g></svg>