<svg fill="none" height="30" viewBox="0 0 24 24" width="30" xmlns="http://www.w3.org/2000/svg"><g fill="#9231be"><path d="m16.5 9v4c0 .8914-.6595 1.528-1.3463 1.8978-.7174.3863-1.657.6022-2.6537.6022s-1.9363-.2159-2.65367-.6022c-.68683-.3698-1.34633-1.0064-1.34633-1.8978v-4c0-.89136.6595-1.52796 1.34633-1.89779.71737-.38628 1.65697-.60221 2.65367-.60221s1.9363.21593 2.6537.60221c.6868.36983 1.3463 1.00643 1.3463 1.89779zm-5.9425-.57708c-.4895.26354-.5575.50194-.5575.57708s.068.31354.5575.57708c.4589.2471 1.1443.42292 1.9425.42292s1.4836-.17582 1.9425-.42292c.4895-.26354.5575-.50194.5575-.57708s-.068-.31354-.5575-.57708c-.4589-.2471-1.1443-.42292-1.9425-.42292s-1.4836.17582-1.9425.42292zm4.4425 2.55338c-.6954.3369-1.573.5237-2.5.5237s-1.8046-.1868-2.5-.5237v2.0237c0 .0751.068.3135.5575.5771.4589.2471 1.1443.4229 1.9425.4229s1.4836-.1758 1.9425-.4229c.4895-.2636.5575-.502.5575-.5771z"/><path d="m4 4.5c0-1.38071 1.11929-2.5 2.5-2.5h11.5c1.3807 0 2.5 1.11929 2.5 2.5v14.25c0 .4142-.3358.75-.75.75h-14.25c0 .5523.44772 1 1 1h13.25c.4142 0 .75.3358.75.75s-.3358.75-.75.75h-13.25c-1.38071 0-2.5-1.1193-2.5-2.5zm1.5 13.5h13.5v-13.5c0-.55228-.4477-1-1-1h-11.5c-.55228 0-1 .44772-1 1z"/></g></svg>