<svg xmlns="http://www.w3.org/2000/svg"  viewBox="0 0 48 48" width="30px" height="30px"><linearGradient id="j5RJ2v9g8mZmoK23sNfFva" x1="12.686" x2="35.58" y1="4.592" y2="41.841" gradientUnits="userSpaceOnUse"><stop offset="0" stop-color="#33bef0"/><stop offset="1" stop-color="#0a85d9"/></linearGradient><path fill="url(#j5RJ2v9g8mZmoK23sNfFva)" d="M42,8H6c-1.105,0-2,0.895-2,2v26c0,1.105,0.895,2,2,2h8v7.998	c0,0.891,1.077,1.337,1.707,0.707L24.412,38H42c1.105,0,2-0.895,2-2V10C44,8.895,43.105,8,42,8z"/><path d="M31.769,12l-3.025,0.001c-0.676,0-1.067,0.757-0.677,1.31C29.25,14.987,31,18.195,31,22.5	c0,4.305-1.751,7.514-2.933,9.19c-0.39,0.553,0.001,1.31,0.677,1.31h3.025c0.479,0,0.925-0.225,1.201-0.617	C33.925,31.028,36,27.505,36,22.5c0-5.005-2.075-8.527-3.03-9.883C32.695,12.225,32.248,12,31.769,12z" opacity=".05"/><path d="M31.711,12.5l-2.959,0.001c-0.299,0-0.477,0.332-0.303,0.576c0.941,1.309,3.05,4.763,3.05,9.424	c0,4.661-2.109,8.115-3.051,9.424c-0.175,0.243,0.003,0.576,0.303,0.576h2.96c0.346,0,0.672-0.165,0.867-0.45	c0.826-1.203,2.921-4.732,2.921-9.55c0-4.818-2.096-8.346-2.921-9.55C32.383,12.665,32.057,12.5,31.711,12.5z" opacity=".07"/><radialGradient id="j5RJ2v9g8mZmoK23sNfFvb" cx="15.5" cy="17.5" r="2.5" gradientUnits="userSpaceOnUse"><stop offset="0"/><stop offset="1" stop-opacity="0"/></radialGradient><circle cx="15.5" cy="17.5" r="2.5" fill="url(#j5RJ2v9g8mZmoK23sNfFvb)" opacity=".3"/><radialGradient id="j5RJ2v9g8mZmoK23sNfFvc" cx="15.5" cy="27.5" r="2.5" gradientUnits="userSpaceOnUse"><stop offset="0"/><stop offset="1" stop-opacity="0"/></radialGradient><circle cx="15.5" cy="27.5" r="2.5" fill="url(#j5RJ2v9g8mZmoK23sNfFvc)" opacity=".3"/><circle cx="15.5" cy="17.5" r="1.5" fill="#fff"/><circle cx="15.5" cy="27.5" r="1.5" fill="#fff"/><path d="M18,21v3c0,0.552,0.448,1,1,1h8c0.552,0,1-0.448,1-1v-3c0-0.552-0.448-1-1-1h-8	C18.448,20,18,20.448,18,21z" opacity=".05"/><path d="M26.909,24.5h-7.818c-0.326,0-0.591-0.265-0.591-0.591v-2.818c0-0.326,0.265-0.591,0.591-0.591h7.818	c0.326,0,0.591,0.265,0.591,0.591v2.818C27.5,24.235,27.235,24.5,26.909,24.5z" opacity=".07"/><rect width="8" height="3" x="19" y="21" fill="#fff"/><path fill="#fff" d="M32,13h-3c0,0,3,4,3,9.5S29,32,29,32h3c0,0,3-4,3-9.5S32,13,32,13z"/><path fill="#fff" d="M32,13h-3c0,0,3,4,3,9.5S29,32,29,32h3c0,0,3-4,3-9.5S32,13,32,13z"/></svg>